<?xml version="1.0" standalone="no"?>
<!DOCTYPE svg PUBLIC "-//W3C//DTD SVG 20010904//EN"
 "http://www.w3.org/TR/2001/REC-SVG-20010904/DTD/svg10.dtd">
<svg version="1.0" xmlns="http://www.w3.org/2000/svg"
 width="990.000000pt" height="595.000000pt" viewBox="0 0 990.000000 595.000000"
 preserveAspectRatio="xMidYMid meet">

<g transform="translate(0.000000,595.000000) scale(0.100000,-0.100000)"
fill="#000000" stroke="none">
<path d="M1755 3825 c-14 -13 -25 -34 -25 -47 0 -43 -35 -84 -86 -102 -60 -20
-162 -21 -188 -1 -42 32 -64 20 -183 -97 -100 -99 -113 -116 -113 -146 0 -19
9 -45 20 -59 35 -44 27 -101 -23 -175 -35 -50 -52 -66 -87 -79 -77 -29 -82
-41 -78 -215 3 -172 10 -189 78 -200 58 -9 87 -40 105 -109 19 -75 19 -126 0
-151 -8 -10 -15 -34 -15 -53 0 -30 13 -47 106 -142 123 -125 142 -133 207 -95
59 35 92 33 157 -10 67 -44 100 -79 100 -105 0 -11 11 -31 25 -44 24 -24 28
-25 183 -25 153 0 159 1 180 23 12 13 22 31 22 41 0 29 28 80 52 95 12 7 55
19 97 26 65 12 80 11 114 -2 31 -13 46 -14 76 -4 46 13 75 43 67 68 -3 10
-107 119 -230 242 l-225 224 -46 -5 c-44 -5 -54 -13 -203 -160 -86 -86 -167
-158 -180 -163 -19 -5 -34 3 -80 42 -31 27 -73 61 -93 76 -49 37 -83 90 -108
170 -11 37 -31 81 -43 98 -21 28 -23 40 -22 173 0 125 2 147 19 172 15 22 19
42 16 82 -2 43 2 60 22 91 14 21 39 44 57 51 30 12 33 11 73 -27 72 -70 117
-80 117 -28 0 17 -16 43 -47 77 -50 53 -54 71 -26 114 20 31 92 57 140 52 28
-4 46 1 66 16 26 19 42 21 177 21 147 0 149 0 177 -26 15 -15 46 -30 68 -34
59 -10 151 -62 188 -107 17 -21 50 -60 72 -86 69 -80 68 -78 55 -104 -7 -13
-82 -93 -166 -179 -211 -213 -217 -171 74 -462 250 -250 263 -259 295 -192 22
46 21 67 -3 107 -24 40 -25 79 -4 124 24 50 93 124 116 124 11 0 33 13 49 29
l29 29 0 150 c0 136 -2 152 -21 176 -13 17 -34 28 -59 32 -65 11 -99 63 -115
175 -4 34 -1 57 15 91 26 61 20 75 -74 170 -149 149 -162 156 -217 117 -47
-33 -89 -35 -145 -6 -66 34 -113 80 -120 117 -4 17 -18 39 -32 50 -22 18 -41
20 -179 20 -150 0 -155 -1 -178 -25z"/>
<path d="M3325 3664 c-47 -17 -98 -64 -120 -110 -8 -18 -15 -58 -15 -91 1
-109 53 -179 157 -209 70 -20 145 -8 203 33 l40 28 0 83 0 82 -101 0 -100 0 3
-32 c3 -32 4 -33 58 -38 47 -4 55 -8 58 -26 8 -56 -107 -85 -173 -44 -88 55
-84 199 7 246 44 23 99 21 142 -5 33 -21 37 -21 67 -6 l31 17 -23 25 c-54 58
-151 77 -234 47z"/>
<path d="M4835 3656 c-60 -28 -77 -46 -106 -111 -26 -60 -22 -135 12 -195 60
-107 219 -138 331 -65 l37 24 3 86 3 85 -97 0 -98 0 0 -35 0 -35 55 0 c54 0
55 0 55 -30 0 -58 -106 -81 -171 -37 -115 77 -63 257 75 259 33 1 55 -5 77
-21 32 -24 58 -22 80 6 12 13 9 19 -19 43 -65 54 -156 64 -237 26z"/>
<path d="M5322 3667 c-138 -51 -186 -222 -95 -345 72 -97 242 -103 333 -12 68
68 79 194 23 275 -54 77 -171 114 -261 82z m149 -85 c40 -23 59 -63 59 -127 0
-53 -3 -60 -39 -96 -34 -35 -44 -39 -87 -39 -98 0 -160 85 -133 182 13 50 37
76 84 93 43 15 74 11 116 -13z"/>
<path d="M3680 3460 l0 -210 40 0 40 0 0 210 0 210 -40 0 -40 0 0 -210z"/>
<path d="M3860 3460 l0 -211 43 3 42 3 5 140 5 139 30 -45 c17 -25 64 -89 105
-142 74 -97 75 -98 114 -95 l40 3 -1 205 -1 205 -41 3 -40 3 -3 -134 -3 -135
-100 131 -100 132 -48 3 -47 3 0 -211z"/>
<path d="M4350 3460 l0 -210 40 0 40 0 0 68 c0 55 4 72 19 86 18 17 22 14 91
-68 l72 -86 50 0 50 0 -44 53 c-23 28 -57 68 -75 87 -17 19 -40 46 -51 60
l-20 25 84 91 c46 51 84 95 84 98 0 3 -21 6 -47 5 -48 0 -49 -1 -128 -91 l-80
-91 -3 92 -3 91 -39 0 -40 0 0 -210z"/>
<path d="M3927 2990 c-141 -42 -190 -233 -89 -350 44 -52 84 -70 159 -70 109
0 185 62 204 167 32 169 -112 301 -274 253z m160 -56 c51 -39 67 -70 71 -142
2 -55 -1 -74 -20 -106 -30 -51 -76 -78 -136 -79 -101 -1 -164 61 -170 167 -3
72 22 126 78 164 29 20 44 23 93 20 37 -3 67 -11 84 -24z"/>
<path d="M4946 2986 c-74 -28 -120 -88 -131 -172 -13 -95 29 -183 105 -222 37
-19 57 -23 117 -20 62 3 77 7 110 34 114 90 112 276 -4 357 -49 35 -137 45
-197 23z m162 -46 c91 -56 109 -200 34 -280 -82 -85 -212 -69 -265 34 -27 51
-26 129 1 182 39 76 157 109 230 64z"/>
<path d="M6194 2989 c-57 -16 -88 -75 -72 -136 6 -23 19 -37 51 -52 24 -12 48
-21 55 -21 22 0 107 -32 125 -48 25 -22 22 -74 -6 -100 -45 -43 -143 -36 -199
15 -14 12 -21 14 -30 5 -33 -33 51 -82 143 -82 103 0 159 43 159 121 0 47 -52
93 -126 113 -96 27 -129 46 -132 82 -7 66 96 97 182 53 52 -26 82 -16 47 15
-43 39 -130 55 -197 35z"/>
<path d="M6510 2988 c0 -4 7 -8 15 -8 12 0 15 -13 15 -56 0 -34 4 -53 10 -49
6 3 10 28 10 56 0 39 3 49 17 49 9 0 13 3 9 7 -10 10 -76 11 -76 1z"/>
<path d="M3230 2780 l0 -210 96 0 c161 0 214 29 214 117 0 36 -6 50 -30 75
-30 30 -30 31 -11 44 32 23 45 76 27 117 -22 55 -57 67 -186 67 l-110 0 0
-210z m240 148 c26 -29 26 -72 -2 -98 -20 -18 -33 -20 -108 -18 l-85 3 -3 54
c-5 81 -5 81 92 81 75 0 88 -3 106 -22z m4 -184 c31 -32 34 -76 6 -104 -26
-26 -52 -32 -135 -28 l-70 3 -3 64 c-2 35 -1 70 2 77 4 10 28 14 89 14 78 0
86 -2 111 -26z"/>
<path d="M3642 2783 c3 -189 5 -208 21 -211 16 -3 17 12 17 207 0 205 -1 211
-20 211 -20 0 -20 -5 -18 -207z"/>
<path d="M4240 2985 c0 -12 113 -380 122 -397 12 -25 37 -22 48 5 5 12 28 88
52 169 24 82 45 148 48 148 3 0 16 -39 29 -86 48 -175 75 -249 94 -252 21 -4
23 3 88 218 27 91 52 173 55 183 4 13 0 17 -19 17 -22 0 -26 -8 -46 -82 -12
-46 -34 -123 -50 -173 l-28 -90 -35 115 c-20 63 -43 141 -52 173 -13 44 -21
57 -36 57 -19 0 -25 -16 -100 -268 -12 -40 -25 -71 -27 -68 -3 3 -26 78 -52
168 -41 145 -49 163 -68 166 -13 2 -23 0 -23 -3z"/>
<path d="M5340 2779 c0 -195 1 -210 18 -207 14 3 17 16 20 86 l3 82 47 0 47
-1 58 -84 c54 -78 80 -99 100 -79 3 4 -21 42 -54 85 l-60 79 39 15 c47 19 72
59 72 117 0 89 -46 118 -190 118 l-100 0 0 -211z m225 146 c42 -41 27 -116
-28 -135 -16 -5 -59 -10 -93 -10 l-64 0 0 85 0 85 80 0 c73 0 83 -3 105 -25z"/>
<path d="M5740 2786 c0 -166 3 -205 14 -209 22 -9 26 2 26 74 0 57 4 71 22 89
12 11 24 20 27 20 3 0 42 -41 86 -90 73 -81 116 -112 132 -97 3 4 -38 53 -91
110 -53 58 -96 108 -96 113 0 5 38 47 85 94 47 47 85 88 85 92 0 5 -10 8 -21
8 -15 0 -57 -36 -125 -107 l-103 -108 -1 108 c0 100 -1 107 -20 107 -19 0 -20
-7 -20 -204z"/>
<path d="M6611 2928 c1 -35 4 -49 6 -33 7 57 14 62 30 23 8 -21 18 -38 22 -38
4 0 13 15 21 33 l13 32 4 -32 c7 -54 23 -37 23 22 0 67 -21 75 -46 18 l-17
-38 -15 38 c-24 60 -42 48 -41 -25z"/>
<path d="M3227 2334 c-12 -12 4 -24 33 -24 l29 0 3 -92 c2 -75 6 -93 18 -93
12 0 15 17 16 90 l2 90 31 3 c19 2 31 9 31 18 0 11 -17 14 -78 14 -43 0 -82
-3 -85 -6z"/>
<path d="M3510 2230 c0 -91 3 -110 15 -110 11 0 15 12 15 50 l0 51 63 -3 62
-3 3 -48 c2 -32 7 -47 15 -44 17 5 17 209 0 214 -8 3 -13 -11 -15 -39 l-3 -43
-62 -3 -63 -3 0 46 c0 33 -4 45 -15 45 -12 0 -15 -19 -15 -110z"/>
<path d="M3834 2327 c-2 -7 -3 -56 -2 -108 l3 -94 73 -3 c59 -2 72 0 72 13 0
12 -12 15 -55 15 l-55 0 0 35 0 35 55 0 c42 0 55 3 55 15 0 12 -13 15 -55 15
-54 0 -55 0 -55 30 0 28 1 29 55 32 81 4 73 22 -13 26 -54 2 -74 -1 -78 -11z"/>
<path d="M4324 2322 c-30 -24 -44 -55 -44 -97 0 -52 53 -105 105 -105 72 0
115 44 115 120 0 30 -7 45 -31 69 -25 26 -38 31 -77 31 -29 0 -55 -7 -68 -18z
m125 -38 c45 -57 11 -134 -59 -134 -30 0 -43 6 -59 26 -45 57 -11 134 59 134
30 0 43 -6 59 -26z"/>
<path d="M4630 2230 c0 -89 3 -110 14 -110 10 0 16 14 18 42 4 59 29 62 63 8
25 -40 50 -59 62 -47 3 4 -6 22 -21 41 l-26 35 25 25 c30 30 32 69 5 96 -16
16 -33 20 -80 20 l-60 0 0 -110z m121 58 c10 -18 8 -24 -11 -40 -13 -11 -35
-18 -49 -16 -22 3 -26 9 -29 41 l-3 37 40 0 c31 0 43 -5 52 -22z"/>
<path d="M4963 2330 c-29 -12 -53 -60 -53 -106 0 -28 8 -44 34 -70 39 -39 86
-45 137 -18 27 14 30 19 27 57 l-3 42 -42 0 c-51 0 -63 -19 -15 -23 58 -6 36
-62 -24 -62 -42 0 -73 27 -80 70 -11 69 61 115 127 80 31 -17 45 0 18 21 -26
20 -88 24 -126 9z"/>
<path d="M5303 2328 c-12 -14 -83 -186 -83 -200 0 -19 31 -6 40 17 9 22 15 25
63 25 48 0 55 -3 65 -25 10 -23 42 -36 42 -17 0 4 -20 52 -43 107 -42 98 -62
120 -84 93z m43 -73 c21 -50 18 -55 -27 -55 -22 0 -39 3 -37 8 2 4 10 24 18
45 8 20 18 37 23 37 4 0 15 -16 23 -35z"/>
<path d="M5544 2327 c-3 -8 -3 -56 -2 -108 2 -76 6 -94 18 -94 12 0 15 15 15
78 0 42 2 77 5 77 3 -1 31 -37 63 -80 32 -44 65 -80 73 -80 11 0 14 21 14 110
0 90 -3 110 -15 110 -11 0 -15 -18 -17 -77 l-3 -78 -60 77 c-59 76 -80 92 -91
65z"/>
<path d="M5870 2230 c0 -91 3 -110 15 -110 12 0 15 19 15 110 0 91 -3 110 -15
110 -12 0 -15 -19 -15 -110z"/>
<path d="M6048 2323 c-41 -48 -29 -74 44 -99 60 -19 71 -30 56 -57 -10 -19
-24 -19 -102 -5 -29 5 -30 -17 -1 -30 41 -19 98 -15 123 8 43 40 23 81 -53
108 -37 13 -50 23 -50 37 0 16 8 21 38 23 21 2 44 -2 52 -8 10 -8 15 -8 21 1
21 35 -99 55 -128 22z"/>
<path d="M6310 2231 c0 -92 3 -111 15 -111 12 0 15 16 16 83 l0 82 41 -85 40
-85 24 50 c13 28 29 64 36 80 12 28 12 26 18 -44 3 -47 10 -76 18 -79 9 -3 12
23 12 108 0 109 0 111 -22 108 -17 -2 -29 -20 -51 -75 -16 -40 -32 -73 -36
-73 -4 0 -21 33 -37 73 -23 55 -35 73 -52 75 -21 3 -22 1 -22 -107z"/>
<path d="M6893 2330 c-29 -12 -53 -60 -53 -106 0 -53 53 -104 108 -104 45 0
104 37 81 51 -7 4 -22 1 -33 -7 -31 -22 -74 -17 -101 11 -50 49 -17 135 51
135 19 0 43 -5 54 -12 27 -17 37 -2 15 22 -19 22 -81 27 -122 10z"/>
<path d="M7187 2319 c-15 -11 -32 -37 -38 -59 -10 -32 -9 -44 7 -76 24 -49 56
-66 114 -60 62 6 90 39 90 107 0 42 -5 55 -29 80 -37 37 -104 41 -144 8z m123
-29 c13 -13 20 -33 20 -58 0 -50 -29 -82 -75 -82 -48 0 -75 29 -75 80 0 51 27
80 75 80 22 0 43 -8 55 -20z"/>
<path d="M7492 2234 c2 -73 7 -109 15 -111 9 -3 13 18 15 74 l3 78 38 -79 c21
-44 41 -75 46 -70 4 5 21 41 37 79 l29 70 5 -74 c3 -47 10 -76 18 -79 9 -3 12
23 12 107 0 102 -2 111 -19 111 -13 0 -27 -20 -51 -75 -18 -41 -35 -75 -39
-75 -3 0 -20 33 -36 73 -24 56 -36 73 -53 75 -22 3 -23 2 -20 -104z"/>
<path d="M7850 2230 c0 -89 3 -110 14 -110 10 0 16 14 18 43 l3 42 45 3 c54 4
80 25 80 63 0 46 -34 69 -102 69 l-58 0 0 -110z m118 68 c32 -32 -3 -72 -56
-66 -23 3 -27 8 -30 41 -3 37 -3 37 35 37 22 0 44 -5 51 -12z"/>
<path d="M8177 2333 c-8 -14 -87 -202 -87 -207 0 -17 32 -2 42 19 10 22 17 25
65 25 47 0 55 -3 65 -25 11 -25 38 -35 38 -14 0 6 -19 55 -42 110 -30 69 -48
99 -60 99 -9 0 -19 -3 -21 -7z m48 -95 l15 -38 -40 0 c-45 0 -47 5 -23 55 19
39 25 37 48 -17z"/>
<path d="M8420 2229 c0 -84 3 -110 13 -107 7 3 14 33 17 82 l5 78 59 -81 c61
-82 85 -99 87 -58 6 115 3 191 -8 194 -10 4 -13 -15 -13 -71 0 -42 -4 -76 -9
-76 -5 0 -34 34 -65 75 -79 104 -86 101 -86 -36z"/>
<path d="M8720 2333 c0 -3 18 -30 39 -58 32 -42 40 -63 43 -101 2 -36 7 -49
18 -49 11 0 15 13 16 47 2 38 10 59 43 105 23 32 36 60 30 62 -13 4 -46 -25
-67 -61 -9 -16 -19 -28 -22 -28 -3 0 -20 20 -38 45 -17 25 -38 45 -47 45 -8 0
-15 -3 -15 -7z"/>
</g>
</svg>
